HIERARCHY
ROOT pelvis
{
  OFFSET 0 100 0
  CHANNELS 6 Xposition Yposition Zposition Zrotation Xrotation Yrotation
  JOINT pelvis_right_femur
  {
    OFFSET -10.78128 -3.44521 -0.5502486
    CHANNELS 3 Zrotation Xrotation Yrotation
    JOINT right_femur_tibia
    {
      OFFSET -0.8047443 -44.0398 -0.1307829
      CHANNELS 3 Zrotation Xrotation Yrotation
      JOINT right_tibia_foot
      {
        OFFSET 3.006224 -47.83518 -5
        CHANNELS 3 Zrotation Xrotation Yrotation
        End Site
        {
          OFFSET 0 -5 15
        }
      }
    }
  }
  JOINT pelvis_left_femur
  {
    OFFSET 10.78128 -3.44521 -0.5502486
    CHANNELS 3 Zrotation Xrotation Yrotation
    JOINT left_femur_tibia
    {
      OFFSET 0.8047443 -44.0398 -0.1307829
      CHANNELS 3 Zrotation Xrotation Yrotation
      JOINT left_tibia_foot
      {
        OFFSET -4.370144 -48.10324 -4.275266
        CHANNELS 3 Zrotation Xrotation Yrotation
        End Site
        {
          OFFSET 0 -5 15
        }
      }
    }
  }
  JOINT pelvis_spine1
  {
    OFFSET 0 6.468898 -3.129235
    CHANNELS 3 Zrotation Xrotation Yrotation
    JOINT spine1
    {
      OFFSET 0 23.15396 4.99043
      CHANNELS 3 Zrotation Xrotation Yrotation
      JOINT spine2
      {
        OFFSET 0 20.79997 -5.064912
        CHANNELS 3 Zrotation Xrotation Yrotation
        JOINT neck
        {
          OFFSET 0 14.38658 9.616178
          CHANNELS 3 Zrotation Xrotation Yrotation
          End Site
          {
            OFFSET 0 20 0
          }
        }
      }
      JOINT right_manubrium
      {
        OFFSET -5.722621 16.35077 3.967754
        CHANNELS 3 Zrotation Xrotation Yrotation
        JOINT right_clavicle
        {
          OFFSET -13.16364 1.694482 -4.693211
          CHANNELS 3 Zrotation Xrotation Yrotation
          JOINT right_humerus
          {
            OFFSET -28.5034 -0.3100689 -2.792744
            CHANNELS 3 Zrotation Xrotation Yrotation
            JOINT right_radius
            {
              OFFSET -25.15693 0.02248979 -1.271978
              CHANNELS 3 Zrotation Xrotation Yrotation
              End Site
              {
                OFFSET -15 0 0
              }
            }
          }
        }
      }
      JOINT left_manubrium
      {
        OFFSET 5.722621 16.35077 3.967754
        CHANNELS 3 Zrotation Xrotation Yrotation
        JOINT left_clavicle
        {
          OFFSET 13.16364 1.694482 -4.693211
          CHANNELS 3 Zrotation Xrotation Yrotation
          JOINT left_humerus
          {
            OFFSET 29.39168 -1.063119 -2.237045
            CHANNELS 3 Zrotation Xrotation Yrotation
            JOINT left_radius
            {
              OFFSET 24.59957 -0.9528479 0.9047498
              CHANNELS 3 Zrotation Xrotation Yrotation
              End Site
              {
                OFFSET 15 -0 -0
              }
            }
          }
        }
      }
    }
  }
}
MOTION
Frames: 9
Frame Time: 0.0416666666667
0 103.5113 0 0.8198213 -1.247929 0.2028274 3.16563 -17.22092 7.503426 -0 37.10473 -0 -5.739673 -13.62416 -2.988029 -7.080585 7.427016 -21.549 -0 4.191471 -0 7.343498 -18.36443 25.22693 -1.791365 -2.81722 5.107656 3.176589 10.47297 -7.383348 0.3371208 20.97009 7.459894 3.871947 -28.31686 8.768693 5.118985 -21.68478 12.66059 84.90672 36.72026 -16.52109 -0 0 15.69854 -9.739551 9.51257 7.582183 5.450464 -20.95704 -1.41475 -96.14874 22.40013 27.88459 0 0 -14.04956 11.72737 16.76203 0.2686173
0.3804717 103.3432 1.581183 0.8003785 -1.209946 0.4150559 3.308841 -19.08645 7.529739 -0 37.44163 -0 -5.789356 -12.95961 -3.267746 -7.095405 9.303902 -21.68372 -0 5.302565 -0 7.226836 -18.73592 24.9418 -1.749325 -2.818375 5.022659 3.197598 10.57714 -7.542308 0.3332083 20.90529 7.459267 3.856085 -28.20374 8.726563 5.041032 -21.51582 12.66044 85.39337 36.47187 -17.17942 -0 0 15.2423 -9.940494 9.658144 7.544142 5.493644 -21.25117 -1.578587 -95.56151 22.27883 27.14907 0 0 -14.90469 11.75472 16.55371 0.2415308
0.6523083 103.0467 3.469944 0.6066635 -0.9780762 0.6471361 3.623552 -22.52513 6.796689 -0 33.92976 -0 -6.080477 -11.71659 -3.544094 -6.70968 12.1509 -20.94907 -0 5.754205 -0 6.732449 -19.5747 23.7707 -1.891876 -2.616462 4.649968 3.31424 10.25654 -7.775022 0.3736666 21.00367 7.568081 3.906821 -27.91122 8.798979 5.203944 -20.57196 12.47233 85.96872 36.67676 -18.33714 -0 0 13.99597 -9.656577 9.527314 7.133732 5.637772 -21.39268 -1.624737 -94.50466 22.9838 25.17545 0 0 -16.28126 11.34234 16.19749 0.7088709
0.863546 102.5565 5.673537 0.4376258 -0.8170959 0.8898897 3.776939 -24.45434 6.021885 -0 30.30516 -0 -6.300307 -10.88685 -3.619635 -6.341173 13.5419 -20.06338 -0 5.48893 -0 6.252543 -20.0948 22.76927 -1.938292 -2.537502 4.41432 3.398918 10.14841 -7.972951 0.3853331 21.02738 7.63363 3.93518 -27.78558 8.835534 5.249632 -20.04904 12.38676 86.51148 36.69787 -19.24757 -0 0 13.14145 -9.531066 9.501995 6.877091 5.740552 -21.62454 -1.710882 -93.75832 23.23312 23.90463 0 0 -17.32856 11.28202 16.00567 0.7770238
1.010569 101.8329 8.352484 0.2437007 -0.7405017 1.155729 3.844723 -26.48493 4.94963 -0 26.0133 -0 -6.472349 -9.599603 -3.725981 -5.910317 15.05571 -18.7465 -0 5.354528 -0 5.440429 -20.63615 21.37016 -2.006546 -2.438104 4.16073 3.489338 9.9879 -8.159794 0.4018533 21.07403 7.709325 3.971086 -27.6533 8.887074 5.327493 -19.47008 12.28246 87.01469 36.78299 -20.13612 -0 0 12.26153 -9.339611 9.433523 6.590093 5.848105 -21.80909 -1.767946 -93.02526 23.56314 22.58507 0 0 -18.33238 11.17462 15.82072 0.8977957
1.101041 100.8978 11.56731 0.06586443 -0.7735357 1.451141 3.826396 -28.26177 3.821081 -0 21.98128 -0 -6.565986 -8.102797 -3.864274 -5.520682 16.46014 -17.28009 -0 5.617637 -0 4.438938 -21.05432 19.84516 -2.046462 -2.366598 3.932568 3.571716 9.891716 -8.35502 0.4118434 21.0944 7.772393 3.998003 -27.53942 8.922154 5.36662 -18.97288 12.20283 87.56219 36.78057 -21.03313 -0 0 11.42882 -9.221344 9.411637 6.341365 5.94855 -22.04715 -1.855538 -92.29722 23.75838 21.34541 0 0 -19.35729 11.14083 15.64263 0.9356035
1.139132 99.7835 15.42503 -0.09961013 -0.9578194 1.78302 3.726882 -29.85477 2.581666 -0 18.10134 -0 -6.566373 -6.2399 -4.073351 -5.162685 17.85663 -15.54474 -0 6.604756 -0 3.128869 -21.30976 18.06945 -2.076973 -2.297357 3.709414 3.648099 9.817981 -8.558363 0.421799 21.10355 7.828541 4.018509 -27.40562 8.945278 5.390198 -18.48313 12.12801 88.14101 36.72091 -21.95735 -0 0 10.59006 -9.154311 9.417033 6.109935 6.046096 -22.30974 -1.963627 -91.52687 23.90092 20.06821 0 0 -20.44112 11.09731 15.43531 0.9852086
1.134175 98.56431 19.99616 -0.2329829 -1.326372 2.149497 3.586118 -31.02439 1.363072 -0 14.75399 -0 -6.459472 -4.130606 -4.366358 -4.868447 19.07141 -13.63139 -0 8.679446 -0 1.550332 -21.26436 16.1592 -2.088372 -2.237747 3.510439 3.709206 9.790813 -8.763268 0.4308258 21.09142 7.868515 4.02632 -27.24632 8.945467 5.383184 -18.041 12.06757 88.73392 36.56705 -22.86685 -0 0 9.797116 -9.183628 9.472407 5.92518 6.131875 -22.5999 -2.101919 -90.73549 23.94717 18.81763 0 0 -21.55853 11.04175 15.19019 1.049881
1.098648 97.3644 25.321 -0.3150531 -1.928361 2.536005 3.481195 -31.48195 0.3174614 -0 12.27607 -0 -6.232436 -1.893936 -4.76486 -4.644657 19.88431 -11.60267 -0 12.38976 -0 -0.2731612 -20.73669 14.22709 -2.081986 -2.18334 3.351036 3.745178 9.809336 -8.953187 0.4411848 21.05858 7.885556 4.017241 -27.04501 8.916194 5.345648 -17.66367 12.02184 89.2891 36.31413 -23.68941 -0 0 9.106158 -9.333353 9.582823 5.810195 6.19638 -22.88936 -2.265941 -89.95606 23.90327 17.64952 0 0 -22.64912 10.93226 14.89434 1.17779
